<?xml version="1.0" standalone="no"?><!DOCTYPE svg PUBLIC "-//W3C//DTD SVG 1.1//EN" "http://www.w3.org/Graphics/SVG/1.1/DTD/svg11.dtd"><svg t="1586862476304" class="icon" viewBox="0 0 1024 1024" version="1.1" xmlns="http://www.w3.org/2000/svg" p-id="33213" xmlns:xlink="http://www.w3.org/1999/xlink" width="200" height="200"><defs><style type="text/css"></style></defs><path d="M9.639454 194.800941A34.755765 34.755765 0 0 1 25.119925 180.705882L480.920395 5.662118c18.432-7.529412 38.731294-7.529412 57.22353-0.060236L996.112866 180.705882c3.553882 1.445647 6.806588 3.614118 9.818353 6.445177a41.080471 41.080471 0 0 1 18.070588 34.213647v533.022118a81.317647 81.317647 0 0 1-48.308706 74.992941l-435.440941 188.355764a76.980706 76.980706 0 0 1-61.741176-0.361411L47.467219 824.380235A81.377882 81.377882 0 0 1 0.001807 749.688471v-528.26353c0-9.938824 3.493647-19.335529 9.637647-26.624z m839.077647 38.731294L509.592395 135.710118 203.235689 245.639529 481.703454 361.411765H481.88416c13.552941 0 26.021647 3.011765 36.080941 8.192l330.691765-136.131765zM421.648866 876.845176V483.930353l-297.020235-112.64v383.819294L421.648866 876.905412zM542.119454 505.374118v395.324235l361.050353-141.793882V371.049412L542.119454 505.313882z" fill="#444444" p-id="33214"></path></svg>