<?xml version="1.0" standalone="no"?><!DOCTYPE svg PUBLIC "-//W3C//DTD SVG 1.1//EN" "http://www.w3.org/Graphics/SVG/1.1/DTD/svg11.dtd"><svg t="1586862530509" class="icon" viewBox="0 0 1024 1024" version="1.1" xmlns="http://www.w3.org/2000/svg" p-id="33405" xmlns:xlink="http://www.w3.org/1999/xlink" width="200" height="200"><defs><style type="text/css"></style></defs><path d="M928.25088 757.38112h-576.39936c-17.69984 0-32-15.49824-32-34.49856v-28.13952c0-19.0976 14.30016-34.49856 32-34.49856h576.39936c17.69984 0 32 15.49824 32 34.49856v28.13952c0 19.0976-14.40256 34.49856-32 34.49856z m0-268.4928h-576.39936c-17.69984 0-32-15.49824-32-34.49856v-28.13952c0-19.0976 14.30016-34.49856 32-34.49856h576.39936c17.69984 0 32 15.49824 32 34.49856v28.13952c0 19.0976-14.40256 34.49856-32 34.49856z m0-268.4928h-576.39936c-17.69984 0-32-15.49824-32-34.49856v-28.13952c0-19.0976 14.30016-34.49856 32-34.49856h576.39936c17.69984 0 32 15.49824 32 34.49856v28.13952c0 19.0976-14.40256 34.49856-32 34.49856z m-768.50176 552.3456h-64c-17.69984 0-32-15.49824-32-34.49856v-58.85952c0-19.0976 14.30016-34.49856 32-34.49856h64c17.69984 0 32 15.49824 32 34.49856v58.85952c0 19.0976-14.30016 34.49856-32 34.49856z m0-268.48768h-64c-17.69984 0-32-15.49824-32-34.49856v-58.85952c0-19.0976 14.30016-34.49856 32-34.49856h64c17.69984 0 32 15.49824 32 34.49856v58.85952c0 19.0976-14.30016 34.49856-32 34.49856z m0-268.49792h-64c-17.69984 0-32-15.49824-32-34.49856v-58.85952c0-19.0976 14.30016-34.49856 32-34.49856h64c17.69984 0 32 15.49824 32 34.49856v58.85952c0 19.0976-14.30016 34.49856-32 34.49856z" fill="" p-id="33406"></path></svg>