<?xml version="1.0" standalone="no"?><!DOCTYPE svg PUBLIC "-//W3C//DTD SVG 1.1//EN" "http://www.w3.org/Graphics/SVG/1.1/DTD/svg11.dtd"><svg t="1597030779289" class="icon" viewBox="0 0 1024 1024" version="1.1" xmlns="http://www.w3.org/2000/svg" p-id="4537" xmlns:xlink="http://www.w3.org/1999/xlink" width="200" height="200"><defs><style type="text/css"></style></defs><path d="M108.816 797.299l469.902 83.91V142.791l-469.902 83.91v570.598z m117.477-436.34h67.128l33.563 63.399 33.566-63.399h67.129L360.55 487.76l83.911 158.496h-67.129l-50.348-95.098-50.348 95.098h-67.129l83.914-158.496-67.128-126.801z m436.336 134.258h-83.906v33.566h83.906v-33.566z m0 201.387h-83.906v33.566h83.906v-33.566z m0-100.692h-83.906v33.563h83.906v-33.563z m0-201.386h-83.906v33.562h83.906v-33.562z m0-100.696h-83.906v33.567h83.906V293.83z m50.348 335.645h117.477v-33.563H712.977v33.563z m0-100.692h117.477v-33.566H712.977v33.566z m0 201.387h117.477v-33.566H712.977v33.566z m117.476-436.34H712.977v33.567h117.477V293.83zM712.977 428.088h117.477v-33.562H712.977v33.562zM578.723 193.139v33.562h302.074v570.598H578.723v33.563h336.461V193.139H578.723z m0 0" p-id="4538"></path></svg>