<?xml version="1.0" standalone="no"?><!DOCTYPE svg PUBLIC "-//W3C//DTD SVG 1.1//EN" "http://www.w3.org/Graphics/SVG/1.1/DTD/svg11.dtd"><svg t="1582282209855" class="icon" viewBox="0 0 1024 1024" version="1.1" xmlns="http://www.w3.org/2000/svg" p-id="3801" xmlns:xlink="http://www.w3.org/1999/xlink" width="200" height="200"><defs><style type="text/css"></style></defs><path d="M831.23725321 263.78762339h-27.76881131c14.07175161-23.85536579 20.27497957-46.62828927 18.31825642-67.73591705-1.66529569-17.65213784-10.07504087-42.88137339-40.79975322-63.03145515-25.39576444-16.73622517-58.16046435-20.85783293-94.50555127-11.78196994-58.90984815 14.77950279-128.64412019 65.57103244-174.43976123 126.97882372C466.07946115 186.80931369 396.42845431 136.01778404 337.56023878 121.23828125c-36.34508615-9.15912821-69.10978606-4.99588783-94.58881572 11.78196994C212.24671073 153.12870034 203.92022997 178.39956851 202.2549343 196.01007372c-1.95672315 21.10762778 4.16324037 43.88055128 18.31825641 67.73591707h-27.81044391C150.71402162 263.78762339 116.4921875 298.00945753 116.4921875 340.05818269v98.25246714c0 33.26428885 21.94027525 62.65676402 53.70579806 72.52364265-2.99753286 8.32647998-4.57956411 16.98602002-4.57956487 25.6871919v294.75740144c0 42.00709256 34.26346597 76.22892668 76.31219189 76.22892668H782.19428445c42.04872517 0 76.2705593-34.22183412 76.2705593-76.27055929V536.56311698a74.93832212 74.93832212 0 0 0-4.57956411-25.7288245A76.3121919 76.3121919 0 0 0 907.5078125 438.31064983V340.05818269c0-42.04872517-34.22183412-76.2705593-76.2705593-76.2705593z m-49.12623319 589.38990507h-242.96669468V514.58120912h243.00832651c12.07339663 0 21.94027525 9.8668794 21.94027602 21.94027526v294.75740144c0 12.07339663-9.8252468 21.89864341-21.94027602 21.89864264zM569.11965464 263.78762339c38.63486858-44.54666908 89.38476563-79.51788622 130.55921073-89.84272195 21.39905448-5.37057973 38.88466267-3.87181369 51.58254528 4.45466707 13.44726563 8.82606892 15.8203125 16.73622517 16.40316587 22.68965826 2.12325278 21.81537821-21.31578927 51.20785337-32.34837618 62.69839662H569.03638944z m284.05787382 76.31219189V438.31064983c0 12.07339663-9.78361418 21.89864341-21.89864264 21.89864264h-292.09292789V318.11790744h292.09292789c12.07339663 0 21.89864341 9.8668794 21.89864264 21.98190784zM484.81404207 514.49794392v338.63795271H241.93061258a21.94027525 21.94027525 0 0 1-21.94027525-21.94027603V536.56311698c0-12.07339663 9.8252468-21.94027525 21.94027525-21.94027601h242.88342949z m-228.39535338-313.49198159c0.54122154-5.91180128 2.91426841-13.82195752 16.36153326-22.64802644 12.57298556-8.32647998 30.10022635-9.8668794 51.62417788-4.45466705 40.92465025 10.28320313 91.59128286 45.25442027 130.30941587 89.84272195H288.68379967c-9.90851123-9.99177644-34.47162821-40.38342948-32.26511098-62.69839585z m-85.59621716 139.05222036c0-12.07339663 9.8252468-21.98190786 21.94027526-21.98190786h292.05129528v142.09138582H192.76274679a21.94027525 21.94027525 0 0 1-21.94027526-21.89864342V340.05818269z" p-id="3802"></path></svg>