<?xml version="1.0" standalone="no"?><!DOCTYPE svg PUBLIC "-//W3C//DTD SVG 1.1//EN" "http://www.w3.org/Graphics/SVG/1.1/DTD/svg11.dtd"><svg t="1592278850333" class="icon" viewBox="0 0 1024 1024" version="1.1" xmlns="http://www.w3.org/2000/svg" p-id="3804" xmlns:xlink="http://www.w3.org/1999/xlink" width="200" height="200"><defs><style type="text/css"></style></defs><path d="M859.07962989 399.28076127c-14.23914609-16.93191972-35.82990703-26.65972441-59.20865684-26.65972442L224.16859971 372.62103597c-23.32298672 0-44.90835205 9.70352138-59.15379375 26.63454199-14.26612763 16.93191972-20.18231631 39.86457188-16.26007588 62.71178115l60.08196445 364.03628379c7.76443535 44.88316963 49.48175127 80.01245127 95.03586563 80.01245127l416.26567177 0c45.50194951 0 87.21476807-35.12928252 95.04036299-80.20851855l60.01990664-363.61357031C879.20708398 439.1489305 873.32057422 416.21627835 859.07962989 399.28076127zM342.14161396 597.04407708c-30.94981612 0-56.09946445-25.14964834-56.09946445-56.07428203 0-30.91923633 25.14964834-56.06888555 56.09946445-56.06888555 30.89405391 0 56.04370224 25.14964834 56.04370226 56.06888555C398.18531621 571.86474896 373.03656699 597.04407708 342.14161396 597.04407708zM680.18731894 597.04407708c-30.92013633 0-56.06978467-25.14964834-56.06978467-56.07428203 0-30.91923633 25.14964834-56.06888555 56.06978468-56.06888555 30.92553281 0 56.07338203 25.14964834 56.07338203 56.06888555C736.26070098 571.86474896 711.11285175 597.04407708 680.18731894 597.04407708z" p-id="3805"></path><path d="M315.76070059 344.97827776c15.47760586 0 28.03669102-12.5608834 28.03669101-28.03219453 0-87.52775625 84.77742128-139.84168711 166.72356123-139.84168711 80.12217744 0 169.69604589 59.94076026 169.6960459 140.17446211 0 15.47760586 12.5303045 28.03669102 28.03219453 28.03669102 15.50728565 0 28.03759013-12.55908516 28.0672708-28.03669102 0-115.64089541-118.98302959-196.24424677-225.76942792-196.24424677-109.52953857 0-222.82302568 73.28321367-222.82302569 195.91147177C287.72400869 332.41739437 300.28309385 344.97827776 315.76070059 344.97827776z" p-id="3806"></path></svg>