<?xml version="1.0" standalone="no"?><!DOCTYPE svg PUBLIC "-//W3C//DTD SVG 1.1//EN" "http://www.w3.org/Graphics/SVG/1.1/DTD/svg11.dtd"><svg t="1592278846590" class="icon" viewBox="0 0 1024 1024" version="1.1" xmlns="http://www.w3.org/2000/svg" p-id="3671" xmlns:xlink="http://www.w3.org/1999/xlink" width="200" height="200"><defs><style type="text/css"></style></defs><path d="M720.49439112 905.33212051L303.51460273 905.33212051c-45.63326074 0-87.42162832-35.18954122-95.19955488-80.15005811l-60.18449502-364.66315839c-3.92943604-22.88588379 1.99664648-45.85810781 16.28795654-62.81970821 14.269725-16.95980127 35.89286484-26.68041035 59.2554252-26.68041035L800.36653731 371.01878545c23.41742256 0 45.04505977 9.74489326 59.3102874 26.70559365 14.26432852 16.96429863 20.16163037 39.93652266 16.14585322 63.02027197l-60.12513545 364.2395458C807.86025635 870.1425793 766.07548701 905.33212051 720.49439112 905.33212051L720.49439112 905.33212051zM223.67303545 427.21538398c-6.87763653 0-12.69309375 2.35640215-16.31403897 6.6860666-3.650625 4.32336885-5.00060918 10.47339932-3.84849052 17.29797189l60.21057744 364.65956102c3.03454248 17.63704248 21.65281963 33.30801739 39.79262022 33.30801739l416.9797875 0c18.14339883 0 36.7625751-15.70065469 39.85198066-33.53196533l60.12603457-364.24314316c1.20878086-7.0179416-0.1412042-13.14099052-3.76214942-17.46525851-3.65152412-4.32426797-9.46608223-6.7112499-16.34371875-6.7112499L223.67303545 427.21538398 223.67303545 427.21538398zM341.8493126 595.82856465c-31.00288008 0-56.19480029-25.19281933-56.1948003-56.17141611 0-30.97230117 25.19192021-56.1642205 56.1948003-56.16422052 30.94711787 0 56.13993721 25.19281933 56.1399372 56.16422052C397.98924893 570.60606465 372.79642959 595.82856465 341.8493126 595.82856465L341.8493126 595.82856465zM341.8493126 539.65714854c0 0-0.05576221 0-0.085442 0.02967978l0.05576221 28.05557871L341.8493126 539.65714854 341.8493126 539.65714854zM680.47602295 595.82856465c-30.97320029 0-56.16601963-25.19281933-56.16601962-56.17141611 0-30.97230117 25.19371846-56.1642205 56.16601962-56.16422052 30.97679766 0 56.16871787 25.19281933 56.16871788 56.16422052C736.64474082 570.60606465 711.4528206 595.82856465 680.47602295 595.82856465L680.47602295 595.82856465zM680.50570273 539.65714854l-0.05666132 0 0.02608242 28.08615761L680.50570273 539.65714854 680.50570273 539.65714854zM708.58646474 343.6674295c-15.5297707 0-28.08076114-12.58067021-28.08076112-28.08525851 0-80.37130869-89.72856387-140.41639776-169.98834815-140.41639774-82.08644502 0-167.00956787 52.40476933-167.00956787 140.08272362 0 15.4982918-12.58156933 28.08076114-28.08525849 28.08076114-15.50368828 0-28.08525849-12.58156933-28.08525851-28.08076113 0-122.83871573 113.4886544-196.24784414 223.20526641-196.24784415 106.97077354 0 226.15796513 80.74095732 226.15796513 196.58151738C736.67172237 331.08675927 724.11983281 343.6674295 708.58646474 343.6674295L708.58646474 343.6674295zM708.58646474 343.6674295" p-id="3672"></path></svg>