<?xml version="1.0" standalone="no"?><!DOCTYPE svg PUBLIC "-//W3C//DTD SVG 1.1//EN" "http://www.w3.org/Graphics/SVG/1.1/DTD/svg11.dtd"><svg t="1593483814730" class="icon" viewBox="0 0 1032 1024" version="1.1" xmlns="http://www.w3.org/2000/svg" p-id="3796" xmlns:xlink="http://www.w3.org/1999/xlink" width="201.5625" height="200"><defs><style type="text/css"></style></defs><path d="M457.26851654 645.08837891c-16.48000718 0-32.95924187-6.13037109-45.7475853-18.45677376C352.98577499 570.20530891 320.81832122 494.39990234 320.81832122 413.12304687c0-163.54248047 133.02194595-296.63085938 296.63085938-296.63085937 163.54248047 0 296.63085938 133.08837891 296.63085937 296.63085938 0 49.56979751-12.52492905 98.74563217-36.18896484 142.05296516-17.40234375 31.97047234-57.47995376 43.77004624-89.45119857 26.23560905-31.90326691-17.40234375-43.70361328-57.47995376-26.23483659-89.4504261C775.52021217 467.63669204 782.24307251 441.13844109 782.24307251 413.12304687c0-90.83547592-73.95996094-164.79466438-164.79466439-164.79466438-90.9011364 0-164.79543686 73.95996094-164.79543686 164.79466439 0 45.1535511 17.86428452 87.27513313 50.36158562 118.58668327 26.23560906 25.3125 26.96019173 67.03857422 1.71412468 93.20775032a65.96405983 65.96405983 0 0 1-47.4609375 20.17089844zM419.67518997 907.5078125c-163.54248047 0-296.63085938-133.08837891-296.63085938-296.63085938 0-43.50585938 9.29443359-85.56178093 27.48779297-124.91480827 15.35914421-33.02490234 54.58007813-47.39450454 87.60498047-32.03613281 33.02490234 15.29348374 47.32961655 54.51441765 32.03613281 87.53931999A163.4961319 163.4961319 0 0 0 254.88129807 610.87695313c0 90.83547592 73.95996094 164.79466438 164.79466438 164.79466438S584.46985436 701.71242905 584.46985436 610.87695313c0-45.1535511-17.86351204-87.27513313-50.36081315-118.58668328-26.23560906-25.3125-26.96096421-67.03857422-1.71412468-93.20775032 25.3125-26.23560906 67.10500717-26.89453125 93.27418327-1.71412468C684.13782311 453.86035156 716.30604934 529.66653061 716.30604934 610.87695313c0 163.54248047-133.08837891 296.63085938-296.63085937 296.63085937z" p-id="3797"></path></svg>