<?xml version="1.0" standalone="no"?><!DOCTYPE svg PUBLIC "-//W3C//DTD SVG 1.1//EN" "http://www.w3.org/Graphics/SVG/1.1/DTD/svg11.dtd"><svg t="1592279275124" class="icon" viewBox="0 0 1024 1024" version="1.1" xmlns="http://www.w3.org/2000/svg" p-id="3874" xmlns:xlink="http://www.w3.org/1999/xlink" width="200" height="200"><defs><style type="text/css"></style></defs><path d="M933.09548129 446.65030677c0 57.73663586-47.12607998 107.46307754-105.27418652 107.46307754-58.14642068 0-105.27418653-49.72812835-105.27418652-107.46307754l0 0 0 0 0 0c0 57.73663586-47.12776584 107.46307754-105.27418652 107.46307754-58.14810654 0-105.27418653-49.72812835-105.27418653-107.46307754l0 0 0 0 0 0 0 0c0 57.73663586-47.12692291 107.46307754-105.27418652 107.46307754s-105.27418653-49.72812835-105.27418653-107.46307754l0 0 0 0 0 0 0 0c0 57.73663586-47.12692291 107.46307754-105.27418652 107.46307754-58.14642068 0-105.27418653-49.72812835-105.27418652-107.46307754l0 0 0 0 0 0 84.21918063-187.31206495L848.87630066 259.33824182 933.09548129 446.65030677 933.09548129 446.65030677 933.09548129 446.65030677zM806.76628887 217.22738712L217.23371113 217.22738712c-26.15454849 0-42.10916885-20.45803546-42.10916886-42.10916886 0-21.6511334 13.19995706-42.10916885 47.37397439-42.10916885l579.00718296 0c31.74566364 0 47.37313064 20.45887922 47.37313064 42.10916885C848.87798733 196.76935166 828.56244839 217.22738712 806.76628887 217.22738712zM217.23371113 575.16923395L217.23371113 575.16923395C221.01789526 574.82015793 213.55239444 575.78644036 217.23371113 575.16923395 218.03557355 575.02589367 216.45208468 575.29318115 217.23371113 575.16923395c1.70659314-0.32968296 19.3694925 0.37015493 21.05584881 0 7.15436801-1.6450406 14.33065869 2.59108703 21.05500588 0l0 0 0 0 0 189.49252423 505.31424087 0L764.6588067 575.16923395l21.05500589 0 0 0c6.7041112 2.59108703 13.91918801-1.6450406 21.05500589 0 1.68635632 0.37015493-1.70574939-0.32968296 0 0 0.78246936 0.12310428-0.80186243-0.14334027 0 0 3.70239642 0.6163635-3.78249829-0.34907603 0 0l0 0c4.33899591 0.39123468 16.61314253 0 21.05500589 0 9.00683103 0 12.50096211 1.56325286 21.05669257 0l0 273.71170487c0 21.63005364-20.31553894 42.11001178-42.11085471 42.11001177L217.23539698 890.99095059c-21.79531659 0-42.10916885-20.47995813-42.10916886-42.11001177L175.12622894 575.16923395c8.55404379 1.56325286 12.04986155 0 21.05500589 0C200.61972485 575.16923395 212.89640188 575.56046862 217.23371113 575.16923395z" p-id="3875"></path></svg>