<?xml version="1.0" standalone="no"?><!DOCTYPE svg PUBLIC "-//W3C//DTD SVG 1.1//EN" "http://www.w3.org/Graphics/SVG/1.1/DTD/svg11.dtd"><svg t="1592279270202" class="icon" viewBox="0 0 1024 1024" version="1.1" xmlns="http://www.w3.org/2000/svg" p-id="3736" xmlns:xlink="http://www.w3.org/1999/xlink" width="200" height="200"><defs><style type="text/css"></style></defs><path d="M823.36203452 289.52685547H200.74622031c-18.77117157 0-33.98895263-15.21778107-33.98895264-33.98895264V175.97285461c0-18.77117157 15.21778107-33.98895263 33.98895263-33.98895263h622.61581421c18.77117157 0 33.98895263 15.21778107 33.98895264 33.98895263v79.56504822c0 18.69392395-15.21778107 33.98895263-33.98895264 33.98895264z m-607.16629028-49.43847656h591.71676635V191.42237854H216.19574424v48.66600037z" fill="" p-id="3737"></path><path d="M873.57298728 474.07141875v-34.60693359l-14.75429537 4.24861909-44.34013366-153.87725831H209.01171561l-43.6449051 153.72276307-14.83154297-4.09412385V474.14866638c-10.42842865 0-20.16162873-4.78935242-26.65042878-13.13209534-6.64329529-8.57448578-8.96072388-19.54364777-6.3343048-30.12657165l0.15449524-0.69522858 53.84159089-189.7201538h680.01079559l54.84580994 190.41538238c2.70366669 10.58292389 0.3862381 21.55208588-6.33430482 30.12657165-6.33430481 8.26549531-16.06750489 13.05484772-26.49593352 13.05484772z m-1e-8-49.43847656c-4.86660004 0-9.42420959 2.24018097-12.35961914 5.94806672-2.7809143 3.5533905-3.70788575 8.03375244-2.62641906 12.35961914l14.9860382-3.78513337v-14.52255249zM150.53526755 439.15549468l14.9860382 3.78513337c1.08146667-4.3258667 0.15449524-8.80622864-2.62641907-12.35961914-2.93540955-3.70788575-7.49301911-5.94806672-12.35961914-5.94806671v14.52255249z" fill="" p-id="3738"></path><path d="M234.27168723 578.66469574c-31.74877167 0-61.48910523-12.43686677-83.81366731-34.9931717C128.51969595 521.50145722 116.54631492 492.14736175 116.93255301 461.09381866c0-3.24440003-0.07724763-6.41155243-0.15449525-10.04219055-0.07724763-3.47614289-0.23174287-7.49301911-0.23174285-11.97338104 0-13.67282868 11.04640961-24.71923828 24.71923828-24.71923829s24.71923828 11.04640961 24.71923828 24.71923829c0 3.78513337 0.07724763 7.26127625 0.23174286 10.58292389 0.07724763 3.86238098 0.23174287 7.80200959 0.15449523 12.05062865-0.23174287 17.76695252 6.64329529 34.60693359 19.31190491 47.35279084 12.9776001 13.13209534 30.20381928 20.31612397 48.66600037 20.31612398 37.46509553 0 67.90065766-30.43556213 67.90065766-67.90065766 0-13.67282868 11.04640961-24.71923828 24.71923828-24.71923829s24.71923828 11.04640961 24.71923828 24.71923829c-0.07724763 64.57901001-52.76012422 117.18463898-117.41638184 117.18463897z" fill="" p-id="3739"></path><path d="M419.58872671 578.66469574c-31.74877167 0-61.48910523-12.43686677-83.8136673-34.9931717-22.0155716-22.24731445-33.91170503-51.60140992-33.52546692-82.654953 0.15449524-13.67282868 11.35540009-24.56474304 24.95098114-24.41024779 13.67282868 0.15449524 24.56474304 11.35540009 24.4102478 24.95098113-0.23174287 17.76695252 6.64329529 34.60693359 19.31190491 47.35279083 12.9776001 13.13209534 30.20381928 20.31612397 48.66600036 20.31612396 37.46509553 0 67.90065766-30.43556213 67.90065766-67.90065764 0-13.67282868 11.04640961-24.71923828 24.71923828-24.71923828s24.71923828 11.04640961 24.71923829 24.71923828c0 64.73350525-52.68287659 117.33913422-117.33913422 117.33913421z" fill="" p-id="3740"></path><path d="M604.21053763 578.66469574c-31.74877167 0-61.48910523-12.43686677-83.8136673-34.9931717-22.0155716-22.24731445-33.91170503-51.60140992-33.52546693-82.654953 0.15449524-13.51833344 11.20090485-24.41024781 24.71923828-24.41024779h0.30899049c13.67282868 0.15449524 24.56474304 11.35540009 24.4102478 24.95098113-0.23174287 17.76695252 6.64329529 34.60693359 19.31190491 47.35279083 12.9776001 13.13209534 30.20381928 20.31612397 48.66600036 20.31612396 37.46509553 0 67.90065766-30.43556213 67.90065765-67.90065764 0-13.67282868 11.04640961-24.71923828 24.71923829-24.71923828s24.71923828 11.04640961 24.71923828 24.71923828c-0.07724763 64.73350525-52.76012422 117.33913422-117.41638183 117.33913421z" fill="" p-id="3741"></path><path d="M789.8365676 578.66469574c-64.73350525 0-117.33913422-52.60562897-117.33913423-117.33913422 0-13.67282868 11.04640961-24.71923828 24.71923829-24.71923828s24.71923828 11.04640961 24.71923828 24.71923828c0 37.46509553 30.43556213 67.90065766 67.90065765 67.90065766 18.4621811 0 35.68840027-7.18402863 48.66600037-20.31612397 12.59136201-12.74585724 19.46640015-29.58583832 19.31190491-47.35279083-0.07724763-4.24861909 0.07724763-8.18824768 0.15449524-12.05062866 0.07724763-3.32164765 0.23174287-6.79779052 0.23174285-10.58292389 0-13.67282868 11.04640961-24.71923828 24.71923828-24.71923828s24.71923828 11.04640961 24.71923828 24.71923828c0 4.55760956-0.07724763 8.49723816-0.23174285 12.05062866-0.07724763 3.63063813-0.23174287 6.79779052-0.15449524 10.04219055 0.30899048 31.05354309-11.58714294 60.40763855-33.52546692 82.654953-22.40180969 22.63355256-52.14214326 34.9931717-83.89091492 34.9931717zM810.22993918 882.94306946H213.87831565c-26.41868591 0-47.89352417-21.47483826-47.89352418-47.89352417V547.61115266c0-13.67282868 11.04640961-24.71923828 24.71923828-24.71923829s24.71923828 11.04640961 24.71923828 24.71923829v285.89344023h593.26171875V617.90648652c0-13.67282868 11.04640961-24.71923828 24.71923828-24.7192383s24.71923828 11.04640961 24.71923828 24.71923829v217.14305878c0 26.34143829-21.47483826 47.89352417-47.89352417 47.89352417z" fill="" p-id="3742"></path></svg>