<?xml version="1.0" standalone="no"?><!DOCTYPE svg PUBLIC "-//W3C//DTD SVG 1.1//EN" "http://www.w3.org/Graphics/SVG/1.1/DTD/svg11.dtd"><svg t="1582085431887" class="icon" viewBox="0 0 1024 1024" version="1.1" xmlns="http://www.w3.org/2000/svg" p-id="3437" xmlns:xlink="http://www.w3.org/1999/xlink" width="200" height="200"><defs><style type="text/css"></style></defs><path d="M318.49237286 429.08839209L161.06167021 429.08839209l-0.8444083 0c-16.15863428 0-29.10634013 13.49120479-29.10634013 30.21951094L131.11092178 874.02024424l-1e-8 1.25949727c0 16.29336709 12.97300078 29.99589346 29.10634015 29.99589345l157.50746806 0 0.76764375 0c16.22275137 0 29.29816318-13.70252636 29.29816319-29.99589345L347.79053604 459.94731347l0-0.63941044C347.81600761 442.57959688 334.71512422 429.08839209 318.49237286 429.08839209zM313.29804307 868.23656739L165.64206026 868.23656739 165.64206026 466.13993135l147.65598281 0L313.29804307 868.23656739zM590.5700334 119.21684433l-157.64852461 0-0.74129415 0c-16.04410224 0-29.11951494 13.30588125-29.11951493 30.49494961L403.06069971 874.02024424l0 1.25949727c0 16.28739492 13.07541182 29.99589346 29.11951494 29.99589345l157.54576201 0 0.84405674 0c16.29969082 0 29.52880752-13.70867432 29.52880752-29.99589345L620.09884092 150.54302744l0-0.82526044C620.09866513 132.52272558 606.86954844 119.21684433 590.5700334 119.21684433zM583.40565283 871.192083l-143.63858936 1e-8L439.7670626 153.30039629l143.63858935-1e-8L583.40565283 871.192083zM862.39245693 280.76717656l-157.36658643 0-0.92134774 0c-16.3506331 0-29.45239453 13.56814424-29.45239453 30.25165693l0 563.00755782 0 1.26652411c0 16.29354287 13.10176143 29.98904239 29.45239453 29.98904239l157.44299941 0 0.84493476 0c16.14598682 0 29.01675234-13.70867432 29.01675235-29.98904239L891.40920928 311.88203808l-1e-8-0.86337949C891.4345042 294.3353208 878.53844287 280.76717656 862.39245693 280.76717656zM856.71154268 871.95972675l-147.36174874 0 0.0254707-557.87031826 147.33627804 0L856.71154268 871.95972675z" p-id="3438"></path></svg>