<?xml version="1.0" standalone="no"?><!DOCTYPE svg PUBLIC "-//W3C//DTD SVG 1.1//EN" "http://www.w3.org/Graphics/SVG/1.1/DTD/svg11.dtd"><svg t="1582085395557" class="icon" viewBox="0 0 1024 1024" version="1.1" xmlns="http://www.w3.org/2000/svg" p-id="3437" xmlns:xlink="http://www.w3.org/1999/xlink" width="200" height="200"><defs><style type="text/css"></style></defs><path d="M314.24609375 896.9609375H144.17773437c-10.546875 0-19.77539063-9.22851563-19.77539062-19.77539063v-296.63085937c0-10.546875 9.22851563-19.77539063 19.77539063-19.77539063H314.24609375c10.546875 0 19.77539063 9.22851563 19.77539063 19.77539063v296.63085938c0 10.546875-9.22851563 19.77539063-19.77539063 19.77539062z m282.12890625-3.95507813H421.03320312c-10.546875 0-19.77539063-9.22851563-19.77539062-19.77539062V138.90429687c0-10.546875 9.22851563-19.77539063 19.77539063-19.77539062h175.34179687c10.546875 0 19.77539063 9.22851563 19.77539063 19.77539063v734.32617187c0 10.546875-9.22851563 19.77539063-19.77539063 19.77539063z m283.44726563 0H713.70898438c-10.546875 0-19.77539063-9.22851563-19.77539063-19.77539062V395.984375c0-10.546875 9.22851563-19.77539063 19.77539062-19.77539063H881.140625c10.546875 0 19.77539063 9.22851563 19.77539063 19.77539063v477.24609375c-1.31835938 10.546875-10.546875 19.77539063-21.09375001 19.77539063z" p-id="3438"></path></svg>